<?xml version="1.0" encoding="utf-8"?>
<!-- Generator: Adobe Illustrator 16.0.0, SVG Export Plug-In . SVG Version: 6.00 Build 0)  -->
<!DOCTYPE svg PUBLIC "-//W3C//DTD SVG 1.1//EN" "http://www.w3.org/Graphics/SVG/1.1/DTD/svg11.dtd">
<svg version="1.1" id="Layer_1" xmlns="http://www.w3.org/2000/svg" xmlns:xlink="http://www.w3.org/1999/xlink" x="0px" y="0px"
	 width="800px" height="480.631px" viewBox="0 0 800 480.631" enable-background="new 0 0 800 480.631" xml:space="preserve">
<path fill="#4A637F" d="M698.747,65.778c-8.511-12.29-19.617-22.799-33.13-31.528c-8.514-5.878-18.14-10.687-28.319-14.784
	C612.496,9.135,585.844,4.326,557.34,4.504c-54.415,0.891-99.948,6.234-136.781,15.854c-13.326,3.74-26.837,8.372-40.165,13.893
	l-43.866,19.06c-15.547,6.947-29.614,14.784-42.57,23.513c-20.36,13.537-37.758,29.034-51.825,46.312
	c-15.363,18.704-27.578,40.435-37.018,65.194l-1.852,3.028l-6.107,8.371l6.107-6.59l-2.775,8.373l4.257-5.523l11.845-15.318
	c57.934-53.259,135.486-80.334,232.843-81.047c42.015-0.356,76.628,7.837,103.095,24.581c19.989,12.292,34.612,28.501,43.681,48.807
	l1.853,5.344l0.74,2.672v0.356l0.74,2.138c2.775,13.359,1.295,29.034-4.442,47.202c-7.219,21.554-18.695,40.079-34.426,55.574
	c15.177-11.042,27.207-24.759,35.535-40.788c8.699-18.169,12.217-37.585,10.736-58.604l-2.037-11.756v-0.356
	c-1.851-6.591-4.44-13.181-7.959-19.772c-6.293-11.399-14.621-21.731-25.17-30.816c-25.729-22.265-58.49-33.843-98.285-34.555
	c-90.878-1.604-162.508,14.784-214.703,49.162c27.763-22.266,62.375-40.256,103.835-54.328l69.224-19.059
	c29.242-4.455,60.895-3.741,95.321,1.958c22.025,3.741,41.644,9.976,59.043,18.703c2.775,1.425,5.368,2.851,7.96,4.454
	c14.251,8.015,25.542,17.812,34.056,28.856c23.137,30.458,22.95,67.152-0.37,109.724c-17.398,32.418-47.013,61.275-88.474,86.568
	c-42.569,26.185-88.472,43.106-138.262,51.301c50.899-5.165,99.578-17.101,146.592-35.981
	c46.272-19.238,84.771-42.749,115.866-70.716c32.021-29.212,51.64-60.027,58.488-92.447c5.922-26.363,2.775-52.19-8.885-77.306
	C709.299,82.167,704.486,73.794,698.747,65.778z"/>
<polygon fill="#D93A2B" points="604.907,174.791 604.907,175.147 606.018,173.723 "/>
<path fill="#D93A2B" d="M598.801,181.382v-0.356l-0.74-2.672l-12.217,15.498C527.726,246.932,450.173,273.829,353,274.898
	c-42.57,0.177-76.996-7.838-103.649-24.226c-19.805-12.826-34.242-29.213-43.126-49.163l-1.48-5.523l-4.257,5.523l2.775-8.373
	l-6.107,6.59l7.959,19.417c6.293,11.755,14.807,22.265,25.542,31.528c25.543,22.087,57.934,33.486,97.913,34.198
	c91.064,1.425,162.877-15.14,215.444-49.519c-27.948,22.268-62.746,40.436-104.391,54.685l-68.669,19.061
	c-29.058,4.274-60.894,3.562-95.69-1.959c-22.211-4.098-42.015-10.333-59.044-19.061c-18.138-9.084-32.391-20.128-42.385-33.31
	c-22.766-30.458-22.581-66.974,0.741-109.368c14.252-26.54,36.461-50.765,66.632-72.497c6.849-4.988,14.067-9.797,21.841-14.428
	c15.177-9.262,30.724-17.278,46.828-24.226c28.874-12.824,59.413-21.553,91.248-26.718c-41.829,3.919-82.364,12.825-121.604,26.718
	l-25.542,9.62c-19.063,7.837-36.833,16.388-53.12,25.649c-23.507,13.36-44.051,28.145-62.005,44.71
	c-32.021,29.034-51.826,59.672-58.858,92.091c-7.774,35.09,0,69.112,23.321,102.065c14.067,20.128,34.797,35.624,61.82,46.846
	c24.432,9.798,50.9,14.784,79.588,14.607c54.602-0.713,100.319-5.878,137.151-15.675l44.792-15.498l38.87-17.455
	c39.608-18.348,71.073-41.858,94.764-70.183c14.994-18.702,27.208-40.255,36.647-64.48l2.593-3.027L598.801,181.382z"/>
<path fill="#FFFFFF" d="M293.958,76.823c-17.399-1.247-34.981-2.672-52.75-3.919c-30.17,21.732-52.38,45.957-66.632,72.497
	c-23.322,42.394-23.506,78.91-0.741,109.368c9.995,13.182,24.247,24.226,42.385,33.31c17.029,8.728,36.833,14.963,59.044,19.061
	c34.797,5.521,66.632,6.233,95.69,1.959l68.669-19.061c41.645-14.249,76.442-32.417,104.391-54.685
	c-52.566,34.378-124.38,50.943-215.444,49.519c-39.979-0.712-72.37-12.111-97.913-34.198c-10.735-9.263-19.249-19.773-25.542-31.528
	l-7.959-19.417l-1.481-12.825c-1.666-20.663,1.852-39.9,10.55-57.534c8.144-16.566,19.805-30.281,35.167-41.147
	c-15.733,15.319-27.208,33.844-34.057,55.753c-5.923,17.99-7.218,33.844-4.073,47.381l1.852-3.028
	c9.44-24.759,21.655-46.49,37.018-65.194C256.2,105.857,273.598,90.36,293.958,76.823z"/>
<path fill="#D93A2B" d="M241.393,88.222c-15.363,10.866-27.024,24.581-35.167,41.147c-8.699,17.634-12.216,36.871-10.55,57.534
	l1.481,12.825l6.107-8.371c-3.146-13.537-1.851-29.391,4.073-47.381C214.185,122.066,225.66,103.542,241.393,88.222z"/>
<path fill="#D93A2B" d="M647.293,405.462l-1.11-3.918l-3.146,2.493l-0.74-2.493l-4.259,2.851l-3.33,4.096l-3.518,49.162
	c-0.369,1.604,0.186,3.385,1.296,5.167l3.702-0.892l0.74,0.892c1.666,0.533,3.146,0,4.258-1.246
	c4.626-6.593,8.144-14.251,10.735-23.335l2.22-8.907c1.295,28.5,5.554,45.601,13.327,51.3h3.888l6.848-1.425l3.701-6.947
	l-3.701,0.713l-0.372-0.356l0.372-0.356h-1.112c-3.7-4.452-6.479-13.715-8.143-27.788c-1.296-8.549-1.852-15.495-1.48-21.019
	l-1.111-21.908l-0.74-4.454l-3.515,1.426l-0.372-1.426c-3.332,1.248-5.738,2.673-6.849,4.454l-0.74,0.356l-7.219,17.1l-0.74,2.315
	v-0.534L647.293,405.462z"/>
<path fill="#D93A2B" d="M774.266,373.222H762.05l-2.406,8.371l-0.37,0.534l-5.738,41.684l-10.921,5.521l-8.514,6.946l-1.852,2.674
	l-3.702,1.066l0.372-1.779L693.381,453.2c-3.702-0.713-5.368-2.673-4.997-5.878c-0.371-2.316,1.109-4.453,4.258-6.234l7.218-3.741
	c17.398-9.618,28.873-16.565,34.241-21.552c3.703-3.741,5.738-6.77,5.738-8.909c0-3.561-1.48-5.342-4.441-5.342l-2.037,0.356
	l-1.48-0.356c-4.442,0.356-10.18,2.671-17.583,6.946l4.996,6.234c2.037-0.89,3.888-1.424,5.368-1.781l-12.216,8.729l-8.329,3.741
	c5.368-5.166,10.364-8.729,15.177-10.688l-4.996-6.234l-16.287,11.044c-15.734,14.428-23.693,25.828-23.693,34.379
	c0,5.878,3.333,8.906,9.996,8.906l2.22-0.357l1.852,0.357c4.258,0,12.401-3.028,24.431-8.906l19.435-13.183l3.887,1.069l2.223-0.356
	l1.851,0.356l7.403-2.137l4.813-2.316v-1.782h-1.851l-1.481-0.712l3.332-2.493v3.205v1.782l-2.223,24.581l3.333,0.892l1.296-0.357
	l2.59,0.357c2.407,0,4.813-1.246,7.591-3.741l0.738-1.781v-3.028l2.406-31.172l28.134-19.06l1.111-3.383l-1.853-0.713l-3.146,0.355
	l-0.739-0.355c-3.147,0-5.555,0.533-6.85,1.603h-0.74L772.6,411.696l-3.701,1.962l1.48-12.114v-1.96l2.591-17.457v-0.534
	L774.266,373.222z"/>
<path fill="#FFFFFF" d="M712.445,421.672l12.216-8.729c-1.48,0.357-3.331,0.892-5.368,1.781c-4.813,1.959-9.809,5.522-15.177,10.688
	L712.445,421.672z"/>
<polygon fill="#FFFFFF" points="750.574,435.564 752.425,435.564 752.425,432.359 749.093,434.853 "/>
<path d="M498.297,425.413c-3.702-2.495-9.254-3.741-16.473-3.741h-39.609v35.625l-24.802-32.42l-3.887-2.493l-2.963-0.712
	l-1.479,0.356l-2.776-0.356l-2.961,1.068c-1.48,0.356-2.593,1.07-3.519,2.137l-26.653,32.775h14.994l13.325-16.209l6.85-8.373
	l6.106,8.373h-12.956l-4.626,6.235h23.506l7.773,9.974h26.653v-29.747h25.542c6.663,0.179,10.181,2.494,10.55,6.947l-2.592,4.453
	l-8.329,2.138h-24.061v6.235h18.325l14.064,9.974h16.475l-15.178-10.33c4.627-1.248,8.144-3.029,10.92-5.522l3.147-6.947
	C503.479,430.936,501.627,427.729,498.297,425.413z"/>
<polygon fill="#FFFFFF" points="408.344,433.07 401.494,441.443 414.45,441.443 "/>
<polygon points="608.795,421.672 557.711,421.672 557.711,427.905 577.146,427.905 577.146,457.652 589.732,457.652 
	589.732,427.905 608.795,427.905 "/>
<polygon points="555.119,427.905 555.119,421.672 508.477,421.672 508.477,457.652 555.119,457.652 555.119,451.418 
	521.433,451.418 521.433,443.225 553.082,443.225 553.082,436.277 521.433,436.277 521.433,427.905 "/>
<path fill="#D93A2B" d="M618.234,451.063c-1.851,2.315-2.591,4.986-2.591,8.015l1.11,2.85l3.147-1.425l1.109,1.425l3.332-1.425
	l4.627-9.976l-0.74-1.424l-1.109-1.425l-2.407,1.068l-1.851-1.068C620.827,447.322,619.347,448.568,618.234,451.063z"/>
<path d="M72.591,421.672H59.819v19.771c0,5.701,2.407,9.975,7.59,12.825l18.323,3.384h6.848c8.329,0,14.437-1.068,18.694-3.384
	c4.442-2.851,6.664-7.124,6.848-12.825v-19.771h-12.216v19.771c-0.185,3.563-1.666,6.413-4.813,8.372l-11.476,1.603h-1.48
	l-11.105-1.603c-3.147-1.959-4.628-4.81-4.442-8.372V421.672z"/>
<polygon points="57.229,427.905 57.229,421.672 5.773,421.672 5.773,427.905 25.577,427.905 25.577,457.652 38.164,457.652 
	38.164,427.905 "/>
<path d="M163.1,421.672h-39.24v35.98h12.216v-29.747h24.803c6.848,0.179,10.735,2.494,11.105,6.947c0,1.782-0.926,3.386-2.776,4.453
	l-8.699,2.138h-23.322v6.235h18.324l14.067,9.974h16.843l-15.178-10.33c4.442-1.248,7.774-3.029,10.18-5.522
	c2.222-2.137,3.518-4.453,3.518-6.947c-0.186-3.917-2.036-7.124-5.368-9.439C176.055,422.918,170.502,421.672,163.1,421.672z"/>
<path d="M343.562,427.905h28.503v-6.233h-32.02c-7.959,0-14.066,1.78-18.324,5.522c-4.442,3.205-6.479,7.48-6.479,12.469
	c0,4.808,2.037,9.084,6.479,12.469c4.443,3.74,10.735,5.521,18.324,5.521h32.02v-6.234h-28.688
	c-5.182-0.178-8.884-1.425-11.661-3.739c-2.591-2.316-3.886-4.987-3.516-8.016c0-3.206,1.11-5.878,3.516-8.017
	C334.863,429.153,338.75,427.905,343.562,427.905z"/>
<polygon points="242.133,422.74 242.133,427.905 261.197,427.905 261.197,457.652 273.783,457.652 273.783,427.905 293.587,427.905 
	293.587,421.672 226.77,421.672 202.894,437.347 202.523,437.703 202.523,421.672 189.938,421.672 189.938,457.652 202.523,457.652 
	202.523,442.869 202.894,443.225 226.77,457.652 243.613,457.652 214.925,440.018 "/>
<rect x="296.549" y="421.672" width="12.585" height="35.98"/>
</svg>
